<svg xmlns="http://www.w3.org/2000/svg" height="20" width="20"><path d="M9 10q-1.25 0-2.125-.875T6 7q0-1.25.875-2.125T9 4q1.25 0 2.125.875T12 7q0 1.25-.875 2.125T9 10Zm0-1.5q.625 0 1.062-.438Q10.5 7.625 10.5 7t-.438-1.062Q9.625 5.5 9 5.5t-1.062.438Q7.5 6.375 7.5 7t.438 1.062Q8.375 8.5 9 8.5Zm9.438 11-2.563-2.562q-.437.25-.906.406-.469.156-.969.156-1.458 0-2.479-1.021Q10.5 15.458 10.5 14q0-1.458 1.021-2.479Q12.542 10.5 14 10.5q1.458 0 2.479 1.021Q17.5 12.542 17.5 14q0 .5-.156.969t-.406.906l2.562 2.563ZM14 16q.833 0 1.417-.583Q16 14.833 16 14q0-.833-.583-1.417Q14.833 12 14 12q-.833 0-1.417.583Q12 13.167 12 14q0 .833.583 1.417Q13.167 16 14 16ZM3 16v-2q0-.521.26-.958.261-.438.719-.688 1.375-.792 2.906-1.135 1.532-.344 3.094-.177-.229.333-.427.698-.198.364-.323.76-1.187-.042-2.333.26-1.146.302-2.167.907-.104.041-.167.135-.062.094-.062.198v.5h4.521q.041.396.135.771t.261.729Zm6-9Zm.021 7.5Z"/></svg>